<svg preserveAspectRatio="none" overflow="visible" style="display: block;" width="202" height="35" viewBox="0 0 202 35" fill="none" xmlns="http://www.w3.org/2000/svg">
<g id="Logo/Rectangle">
<g id="Union">
<path d="M28.6985 28.0174C28.6985 28.5867 28.237 29.0481 27.6678 29.0482H9.81661C9.24733 29.0482 8.78585 28.5867 8.78585 28.0174V25.8265H28.6985V28.0174Z" fill="white"/>
<path d="M28.6985 28.0174C28.6985 28.5867 28.237 29.0481 27.6678 29.0482H9.81661C9.24733 29.0482 8.78585 28.5867 8.78585 28.0174V25.8265H28.6985V28.0174Z" fill="#F99D0D"/>
<path fill-rule="evenodd" clip-rule="evenodd" d="M18.7512 6C20.055 6 21.112 7.05698 21.112 8.36082C21.112 9.23663 20.6351 10.0011 19.9268 10.4086L23.4899 17.829L28.9244 15.4479C28.8989 15.3089 28.8855 15.1656 28.8855 15.0192C28.8855 13.7154 29.9425 12.6584 31.2463 12.6584C32.5502 12.6584 33.6072 13.7154 33.6072 15.0192C33.6072 16.3231 32.5502 17.3801 31.2463 17.3801C31.1329 17.38 31.0213 17.372 30.9121 17.3566L28.8038 24.3132H8.65023L6.68288 17.3382C6.53881 17.3657 6.39009 17.3801 6.23802 17.3801C4.93417 17.38 3.8772 16.3231 3.8772 15.0192C3.8772 13.7154 4.93417 12.6584 6.23802 12.6584C7.54187 12.6584 8.59884 13.7154 8.59884 15.0192C8.59884 15.1439 8.58917 15.2664 8.57054 15.3859L14.003 17.829L17.5681 10.4043C16.8639 9.99571 16.3903 9.23357 16.3903 8.36082C16.3904 7.05698 17.4473 6.00001 18.7512 6ZM6.23802 13.8836C5.61085 13.8836 5.10246 14.3921 5.10246 15.0192C5.10246 15.6464 5.61086 16.1548 6.23802 16.1548C6.275 16.1548 6.31161 16.153 6.34768 16.1496C6.9234 16.0944 7.37363 15.6094 7.37364 15.0192C7.37364 14.9587 7.36889 14.8993 7.35977 14.8413C7.27439 14.2987 6.80467 13.8836 6.23802 13.8836ZM31.2463 13.8836C30.6504 13.8836 30.1617 14.3427 30.1145 14.9265C30.112 14.9571 30.1108 14.988 30.1108 15.0192C30.1108 15.6464 30.6192 16.1548 31.2463 16.1548C31.2617 16.1548 31.2771 16.1545 31.2924 16.1539C31.8982 16.1297 32.3819 15.631 32.3819 15.0192C32.3819 14.3921 31.8735 13.8836 31.2463 13.8836ZM18.7512 7.22526C18.124 7.22527 17.6156 7.73367 17.6156 8.36082C17.6156 8.74656 17.8079 9.08742 18.1019 9.29266C18.2859 9.42111 18.5098 9.49644 18.7512 9.49644C18.9895 9.49644 19.2107 9.42302 19.3933 9.29758C19.6913 9.0929 19.8868 8.74967 19.8868 8.36082C19.8868 7.73366 19.3783 7.22526 18.7512 7.22526Z" fill="white"/>
<path fill-rule="evenodd" clip-rule="evenodd" d="M18.7512 6C20.055 6 21.112 7.05698 21.112 8.36082C21.112 9.23663 20.6351 10.0011 19.9268 10.4086L23.4899 17.829L28.9244 15.4479C28.8989 15.3089 28.8855 15.1656 28.8855 15.0192C28.8855 13.7154 29.9425 12.6584 31.2463 12.6584C32.5502 12.6584 33.6072 13.7154 33.6072 15.0192C33.6072 16.3231 32.5502 17.3801 31.2463 17.3801C31.1329 17.38 31.0213 17.372 30.9121 17.3566L28.8038 24.3132H8.65023L6.68288 17.3382C6.53881 17.3657 6.39009 17.3801 6.23802 17.3801C4.93417 17.38 3.8772 16.3231 3.8772 15.0192C3.8772 13.7154 4.93417 12.6584 6.23802 12.6584C7.54187 12.6584 8.59884 13.7154 8.59884 15.0192C8.59884 15.1439 8.58917 15.2664 8.57054 15.3859L14.003 17.829L17.5681 10.4043C16.8639 9.99571 16.3903 9.23357 16.3903 8.36082C16.3904 7.05698 17.4473 6.00001 18.7512 6ZM6.23802 13.8836C5.61085 13.8836 5.10246 14.3921 5.10246 15.0192C5.10246 15.6464 5.61086 16.1548 6.23802 16.1548C6.275 16.1548 6.31161 16.153 6.34768 16.1496C6.9234 16.0944 7.37363 15.6094 7.37364 15.0192C7.37364 14.9587 7.36889 14.8993 7.35977 14.8413C7.27439 14.2987 6.80467 13.8836 6.23802 13.8836ZM31.2463 13.8836C30.6504 13.8836 30.1617 14.3427 30.1145 14.9265C30.112 14.9571 30.1108 14.988 30.1108 15.0192C30.1108 15.6464 30.6192 16.1548 31.2463 16.1548C31.2617 16.1548 31.2771 16.1545 31.2924 16.1539C31.8982 16.1297 32.3819 15.631 32.3819 15.0192C32.3819 14.3921 31.8735 13.8836 31.2463 13.8836ZM18.7512 7.22526C18.124 7.22527 17.6156 7.73367 17.6156 8.36082C17.6156 8.74656 17.8079 9.08742 18.1019 9.29266C18.2859 9.42111 18.5098 9.49644 18.7512 9.49644C18.9895 9.49644 19.2107 9.42302 19.3933 9.29758C19.6913 9.0929 19.8868 8.74967 19.8868 8.36082C19.8868 7.73366 19.3783 7.22526 18.7512 7.22526Z" fill="#F99D0D"/>
</g>
<g id="EMPIRE TEAM">
<path d="M36.8127 29V10H49.0041V13.312H40.638V17.8394H48.3768V21.1514H40.638V25.688H49.0394V29H36.8127Z" fill="#F99D0D"/>
<path d="M51.2989 10H56.0164L60.999 22.7656H61.211L66.1935 10H70.9111V29H67.2007V16.6333H67.0505L62.3683 28.9072H59.8417L55.1595 16.5869H55.0093V29H51.2989V10Z" fill="#F99D0D"/>
<path d="M73.3164 29V10H80.4545C81.8267 10 82.9958 10.2752 83.9617 10.8257C84.9276 11.37 85.6638 12.1276 86.1703 13.0986C86.6826 14.0635 86.9388 15.1768 86.9388 16.4385C86.9388 17.7002 86.6797 18.8135 86.1614 19.7783C85.6431 20.7432 84.8922 21.4946 83.9087 22.0327C82.931 22.5708 81.7472 22.8398 80.3573 22.8398H75.8076V19.6206H79.7389C80.4751 19.6206 81.0817 19.4876 81.5588 19.2217C82.0417 18.9495 82.401 18.5754 82.6365 18.0991C82.878 17.6167 82.9987 17.0632 82.9987 16.4385C82.9987 15.8076 82.878 15.2572 82.6365 14.7871C82.401 14.3109 82.0417 13.9429 81.5588 13.6831C81.0758 13.4172 80.4633 13.2842 79.7212 13.2842H77.1416V29H73.3164Z" fill="#F99D0D"/>
<path d="M92.5024 10V29H88.6772V10H92.5024Z" fill="#F99D0D"/>
<path d="M94.9033 29V10H102.041C103.408 10 104.574 10.2567 105.54 10.77C106.512 11.2772 107.251 11.9977 107.757 12.9316C108.27 13.8594 108.526 14.951 108.526 16.2065C108.526 17.4683 108.267 18.5537 107.748 19.4629C107.23 20.3659 106.479 21.0586 105.496 21.541C104.518 22.0234 103.334 22.2646 101.944 22.2646H97.1649V19.0361H101.326C102.056 19.0361 102.663 18.931 103.146 18.7207C103.629 18.5104 103.988 18.195 104.223 17.7744C104.465 17.3538 104.586 16.8312 104.586 16.2065C104.586 15.5757 104.465 15.0438 104.223 14.6108C103.988 14.1779 103.626 13.8501 103.137 13.6274C102.654 13.3986 102.044 13.2842 101.308 13.2842H98.7285V29H94.9033ZM104.674 20.3535L109.171 29H104.948L100.548 20.3535H104.674Z" fill="#F99D0D"/>
<path d="M110.483 29V10H122.674V13.312H114.308V17.8394H122.047V21.1514H114.308V25.688H122.709V29H110.483Z" fill="#F99D0D"/>
<path d="M129.291 13.312V10H144.151V13.312H138.611V29H134.83V13.312H129.291Z" fill="#F99D0D"/>
<path d="M145.851 29V10H158.043V13.312H149.677V17.8394H157.415V21.1514H149.677V25.688H158.078V29H145.851Z" fill="#F99D0D"/>
<path d="M163.456 29H159.357L165.603 10H170.532L176.769 29H172.67L168.138 14.3418H167.997L163.456 29ZM163.2 21.5317H172.882V24.6675H163.2V21.5317Z" fill="#F99D0D"/>
<path d="M178.201 10H182.918L187.901 22.7656H188.113L193.095 10H197.813V29H194.102V16.6333H193.952L189.27 28.9072H186.743L182.061 16.5869H181.911V29H178.201V10Z" fill="#F99D0D"/>
</g>
</g>
</svg>
