<svg preserveAspectRatio="none" overflow="visible" style="display: block;" width="20" height="20" viewBox="0 0 20 20" fill="none" xmlns="http://www.w3.org/2000/svg">
<g id="Nav / Video / Soft gradient">
<path id="Vector" d="M15 4.16667H5C3.15905 4.16667 1.66667 5.65905 1.66667 7.5V13.3333C1.66667 15.1743 3.15905 16.6667 5 16.6667H15C16.8409 16.6667 18.3333 15.1743 18.3333 13.3333V7.5C18.3333 5.65905 16.8409 4.16667 15 4.16667Z" fill="url(#paint0_linear_0_109)"/>
<path id="Vector_2" d="M8.33333 7.5L13.3333 10.8333L8.33333 14.1667V7.5Z" fill="white"/>
<g id="Vector_3" opacity="0.4">
<path d="M5 5.83333H14.1667Z" fill="black"/>
<path d="M5 5.83333H14.1667" stroke="white" stroke-width="1.08333" stroke-linecap="round"/>
</g>
<path id="Vector_4" opacity="0.45" d="M13.5417 17.5H6.45833C6.11316 17.5 5.83333 17.7798 5.83333 18.125C5.83333 18.4702 6.11316 18.75 6.45833 18.75H13.5417C13.8868 18.75 14.1667 18.4702 14.1667 18.125C14.1667 17.7798 13.8868 17.5 13.5417 17.5Z" fill="url(#paint1_linear_0_109)"/>
</g>
<defs>
<linearGradient id="paint0_linear_0_109" x1="1.66667" y1="4.16667" x2="13.6667" y2="20.1667" gradientUnits="userSpaceOnUse">
<stop stop-color="#EA65CB"/>
<stop offset="1" stop-color="#E53EBE"/>
</linearGradient>
<linearGradient id="paint1_linear_0_109" x1="5.83333" y1="17.5" x2="6.20008" y2="19.945" gradientUnits="userSpaceOnUse">
<stop stop-color="#EA65CB"/>
<stop offset="1" stop-color="#E53EBE"/>
</linearGradient>
</defs>
</svg>
