<svg preserveAspectRatio="none" overflow="visible" style="display: block;" width="20" height="20" viewBox="0 0 20 20" fill="none" xmlns="http://www.w3.org/2000/svg">
<g id="Nav / Video / Soft gradient">
<path id="White glyph &#194;&#183; transparent details" d="M13.542 17.5005C13.887 17.5007 14.167 17.7804 14.167 18.1255C14.1667 18.4703 13.8868 18.7503 13.542 18.7505H6.45898C6.11397 18.7505 5.83425 18.4704 5.83398 18.1255C5.83398 17.7803 6.11381 17.5005 6.45898 17.5005H13.542ZM15 4.1665C16.8407 4.1667 18.3338 5.65883 18.334 7.49951V13.3335C18.3338 15.1742 16.8407 16.6663 15 16.6665H5C3.15931 16.6663 1.66717 15.1742 1.66699 13.3335V7.49951C1.66717 5.65882 3.15931 4.16668 5 4.1665H15ZM8.33301 14.1665L13.333 10.8335L8.33301 7.50049V14.1665Z" fill="white"/>
</g>
</svg>
