<svg width="20" height="20" viewBox="0 0 20 20" fill="none" xmlns="http://www.w3.org/2000/svg">
<g transform="translate(2.222 1.111)">
<g id="Group">
<path id="Vector" d="M14.9856 4.91889L10.6356 0.568889C10.2713 0.204556 9.77733 0 9.26222 0H3.05556C1.368 0 0 1.368 0 3.05556V14.7222C0 16.4098 1.368 17.7778 3.05556 17.7778H12.5C14.1876 17.7778 15.5556 16.4098 15.5556 14.7222V6.295C15.5556 5.77878 15.3506 5.28367 14.9856 4.91889ZM5.55556 13.6111C5.55556 14.0712 5.18233 14.4444 4.72222 14.4444C4.26211 14.4444 3.88889 14.0712 3.88889 13.6111V10.5556C3.88889 10.0954 4.26211 9.72222 4.72222 9.72222C5.18233 9.72222 5.55556 10.0954 5.55556 10.5556V13.6111ZM8.61111 13.6111C8.61111 14.0712 8.23789 14.4444 7.77778 14.4444C7.31767 14.4444 6.94444 14.0712 6.94444 13.6111V7.77778C6.94444 7.31767 7.31767 6.94444 7.77778 6.94444C8.23789 6.94444 8.61111 7.31767 8.61111 7.77778V13.6111ZM11.6667 13.6111C11.6667 14.0712 11.2934 14.4444 10.8333 14.4444C10.3732 14.4444 10 14.0712 10 13.6111V11.9444C10 11.4843 10.3732 11.1111 10.8333 11.1111C11.2934 11.1111 11.6667 11.4843 11.6667 11.9444V13.6111ZM13.8144 6.11111H10.5567C9.94556 6.11111 9.44556 5.61111 9.44556 5V1.75456H9.44444C9.45444 1.74989 9.44889 1.75344 9.45889 1.74889L13.8167 6.10567C13.8167 6.10567 13.8156 6.10889 13.8144 6.11111Z" fill="white"/>
</g>
</g>
</svg>
