<svg preserveAspectRatio="none" overflow="visible" style="display: block;" width="20" height="20" viewBox="0 0 20 20" fill="none" xmlns="http://www.w3.org/2000/svg">
<g id="Phone">
<path id="Vector" d="M3.79979 17.0833C3.54743 17.0833 3.33715 17 3.16896 16.8333C3.00076 16.6667 2.91667 16.4583 2.91667 16.2083V13.5065C2.91667 13.3045 2.98319 13.124 3.11625 12.9648C3.24931 12.8056 3.42104 12.6983 3.63146 12.6427L5.94542 12.1715C6.14528 12.1437 6.33785 12.157 6.52312 12.2115C6.70854 12.266 6.86646 12.3612 6.99688 12.4969L8.86687 14.3831C9.4641 14.0455 10.0202 13.6806 10.5352 13.2885C11.0502 12.8965 11.5363 12.4717 11.9935 12.0144C12.4573 11.554 12.8881 11.0708 13.286 10.565C13.6841 10.059 14.038 9.52243 14.3477 8.95521L12.4231 7.08167C12.3013 6.97056 12.2169 6.83326 12.1698 6.66979C12.1228 6.50632 12.1159 6.31083 12.149 6.08333L12.6267 3.63146C12.6704 3.42951 12.7727 3.25993 12.9335 3.12271C13.0944 2.98535 13.28 2.91667 13.4904 2.91667H16.2083C16.4583 2.91667 16.6667 3.00076 16.8333 3.16896C17 3.33715 17.0833 3.54743 17.0833 3.79979C17.0833 5.37021 16.7182 6.94653 15.9879 8.52875C15.2576 10.1111 14.2288 11.5674 12.9015 12.8975C11.574 14.2275 10.1178 15.2576 8.53292 15.9879C6.94792 16.7182 5.37021 17.0833 3.79979 17.0833ZM14.9263 7.7725C15.1838 7.18806 15.3844 6.60201 15.5281 6.01437C15.6717 5.42687 15.7649 4.8484 15.8077 4.27896C15.8077 4.24688 15.797 4.22014 15.7756 4.19875C15.7542 4.17736 15.7275 4.16667 15.6954 4.16667H13.9263C13.8835 4.16667 13.8488 4.17736 13.8221 4.19875C13.7954 4.22014 13.7767 4.25215 13.766 4.29479L13.391 6.15708C13.3803 6.18917 13.379 6.22389 13.3871 6.26125C13.395 6.29861 13.4124 6.32799 13.4392 6.34938L14.9263 7.7725ZM7.67625 14.9487L6.20521 13.4615C6.1784 13.4348 6.15299 13.4174 6.12896 13.4094C6.10493 13.4015 6.07687 13.4028 6.04479 13.4135L4.29479 13.7821C4.25215 13.7928 4.22014 13.8115 4.19875 13.8381C4.17736 13.8648 4.16667 13.8995 4.16667 13.9423V15.6954C4.16667 15.7275 4.17736 15.7542 4.19875 15.7756C4.22014 15.797 4.24687 15.8077 4.27896 15.8077C4.80021 15.782 5.35868 15.6968 5.95437 15.5521C6.54993 15.4074 7.12389 15.2062 7.67625 14.9487Z" fill="#1A3A6E"/>
</g>
</svg>
